<svg version="1" xmlns="http://www.w3.org/2000/svg" width="144" height="144" viewBox="0 0 144 144">
<g transform="translate(0,144) scale(0.1,-0.1)"
fill="#000000" stroke="none">
<path d="M0 720 l0 -720 720 0 720 0 0 720 0 720 -720 0 -720 0 0 -720z m930
612 c290 -105 458 -373 429 -687 -23 -237 -190 -449 -422 -534 -71 -26 -77
-26 -367 -29 -199 -2 -307 0 -333 8 -50 15 -116 74 -138 126 -17 38 -19 78
-19 502 -1 509 -1 503 63 571 67 70 76 71 417 69 291 -3 308 -4 370 -26z"/>
<path d="M270 1170 c-19 -19 -20 -33 -20 -450 0 -417 1 -431 20 -450 19 -19
33 -20 274 -20 283 0 328 7 425 69 263 169 299 532 73 743 -59 55 -121 92
-191 112 -44 13 -106 16 -308 16 -240 0 -254 -1 -273 -20z"/>
</g>
</svg>
